<svg width="95" height="95" viewBox="0 0 95 95" fill="none" xmlns="http://www.w3.org/2000/svg">
<g opacity="0.12">
<path d="M71.7114 47.8556C80.5265 47.8556 86.4669 54.0984 86.4669 63.3482C86.4669 71.6719 79.6394 78.6065 70.3919 78.6065C60.2629 78.6065 52.7784 70.2827 52.7784 57.5685C52.7784 28.6698 73.4744 17.1104 86.4669 15.7212V28.4354C77.6574 30.0533 67.753 39.0688 67.3094 49.0161C67.753 48.7874 69.5104 47.8556 71.7114 47.8556ZM26.7989 47.8556C35.6029 47.8556 41.5489 54.0984 41.5489 63.3482C41.5489 71.6719 34.7213 78.6065 25.4738 78.6065C15.3448 78.6065 7.86035 70.2827 7.86035 57.5685C7.86035 28.6698 28.5563 17.1104 41.5489 15.7212V28.4354C32.7393 30.0533 22.8349 39.0688 22.3913 49.0161C22.8349 48.7874 24.5923 47.8556 26.7989 47.8556Z" fill="#050505"/>
</g>
</svg>
